<?xml version="1.0" encoding="UTF-8" standalone="no"?>
<!-- Created with Inkscape (http://www.inkscape.org/) -->

<svg
   xmlns:dc="http://purl.org/dc/elements/1.1/"
   xmlns:cc="http://creativecommons.org/ns#"
   xmlns:rdf="http://www.w3.org/1999/02/22-rdf-syntax-ns#"
   xmlns:svg="http://www.w3.org/2000/svg"
   xmlns="http://www.w3.org/2000/svg"
   xmlns:sodipodi="http://sodipodi.sourceforge.net/DTD/sodipodi-0.dtd"
   xmlns:inkscape="http://www.inkscape.org/namespaces/inkscape"
   width="107.95383mm"
   height="135.3914mm"
   viewBox="0 0 107.95383 135.3914"
   version="1.1"
   id="svg8"
   inkscape:version="0.92.4 (5da689c313, 2019-01-14)"
   sodipodi:docname="cadeado.svg">
  <defs
     id="defs2" />
  <sodipodi:namedview
     id="base"
     pagecolor="#ffffff"
     bordercolor="#666666"
     borderopacity="1.0"
     inkscape:pageopacity="0.0"
     inkscape:pageshadow="2"
     inkscape:zoom="0.35"
     inkscape:cx="195.44304"
     inkscape:cy="249.9322"
     inkscape:document-units="mm"
     inkscape:current-layer="layer1"
     showgrid="false"
     inkscape:window-width="1600"
     inkscape:window-height="847"
     inkscape:window-x="1358"
     inkscape:window-y="-8"
     inkscape:window-maximized="1" />
  <metadata
     id="metadata5">
    <rdf:RDF>
      <cc:Work
         rdf:about="">
        <dc:format>image/svg+xml</dc:format>
        <dc:type
           rdf:resource="http://purl.org/dc/dcmitype/StillImage" />
        <dc:title />
      </cc:Work>
    </rdf:RDF>
  </metadata>
  <g
     inkscape:label="Camada 1"
     inkscape:groupmode="layer"
     id="layer1"
     transform="translate(-54.122361,-79.569824)">
    <path
       style="fill:#000000;stroke-width:0.26458332"
       d="m 71.808522,214.78727 c -8.29037,-1.42057 -15.08581,-7.646 -17.14537,-15.70718 -0.51359,-2.01017 -0.53272,-2.91553 -0.5398,-25.53621 -0.007,-22.75218 0.009,-23.51521 0.53246,-25.5649 1.86294,-7.29152 7.58251,-13.1254 14.96348,-15.26255 l 2.10169,-0.60854 h 36.380208 36.38021 l 2.10169,0.60854 c 7.37238,2.13466 13.10077,7.97191 14.95839,15.24264 0.5168,2.02276 0.53471,2.87859 0.53471,25.55611 0,22.67753 -0.0179,23.53336 -0.53471,25.55612 -1.83993,7.20149 -7.44482,12.96397 -14.81836,15.23499 l -1.97714,0.60895 -35.85104,0.0419 c -19.718068,0.023 -36.406958,-0.0534 -37.086418,-0.16983 z m 72.359338,-10.84912 c 3.07774,-0.95062 5.53184,-3.30724 6.85863,-6.58619 l 0.59866,-1.47949 v -22.35729 -22.35729 l -0.59866,-1.47948 c -1.32679,-3.27896 -3.78089,-5.63557 -6.85863,-6.58619 -1.69344,-0.52305 -2.38565,-0.53329 -36.06667,-0.53329 -33.681018,0 -34.373228,0.0102 -36.066668,0.53329 -3.93445,1.21523 -6.78442,4.63933 -7.325,8.80062 -0.32354,2.49049 -0.32354,40.7542 0,43.24469 0.53435,4.11336 3.37518,7.5646 7.23322,8.78744 1.58151,0.50127 2.6613,0.51719 36.064428,0.5316 33.79712,0.0146 34.46605,0.005 36.16069,-0.51842 z M 98.580372,187.00259 c -1.2835,-0.30179 -2.21595,-1.43637 -2.01328,-2.44973 0.086,-0.43023 1.23385,-2.50195 2.55067,-4.60381 l 2.394218,-3.82156 -0.84583,-0.96335 c -0.46521,-0.52985 -1.155518,-1.62363 -1.534038,-2.43063 -0.60437,-1.28853 -0.68821,-1.80573 -0.68821,-4.24541 0,-2.46038 0.0811,-2.95116 0.7091,-4.29103 1.988618,-4.24286 6.828058,-6.85778 11.196988,-6.05014 3.5188,0.65049 6.16378,2.60237 7.67263,5.6621 1.88803,3.82864 1.43671,7.94854 -1.2439,11.3551 -0.4465,0.56742 -0.69771,1.13019 -0.59053,1.32292 0.10259,0.18448 1.18248,1.95355 2.39976,3.93125 2.36542,3.84306 2.65479,4.82617 1.70125,5.7797 -0.28159,0.28159 -0.9662,0.63812 -1.52135,0.79228 -1.19498,0.33183 -18.782958,0.34256 -20.187478,0.0123 z m -29.63751,-70.20587 c 0,-9.79106 0.18791,-11.62407 1.60719,-15.67714 1.69924,-4.852555 3.94851,-8.415039 7.72027,-12.227635 4.72335,-4.774485 10.92167,-7.906001 17.65894,-8.921643 3.5421,-0.533971 20.801758,-0.533971 24.343868,0 7.01531,1.057559 13.01787,4.168565 18.04492,9.352329 3.61132,3.723893 5.62322,6.9626 7.32833,11.796949 1.42421,4.03796 1.61314,5.87407 1.61314,15.67714 v 8.82888 h -10.45104 -10.45104 l -0.009,-6.81302 c -0.005,-3.74716 -0.11124,-7.60826 -0.23661,-8.58022 -0.55268,-4.28462 -3.58289,-7.86103 -7.67411,-9.05737 -2.1169,-0.61901 -18.556838,-0.61901 -20.673748,0 -4.09122,1.19634 -7.12143,4.77275 -7.67411,9.05737 -0.12537,0.97196 -0.23185,4.83306 -0.23661,8.58022 l -0.009,6.81302 h -10.45035 -10.45104 z"
       id="path3724"
       inkscape:connector-curvature="0" />
  </g>
</svg>
